<?xml version="1.0" encoding="utf-8"?>
<svg id="logo" viewBox="217.099 331.041 592.84712 23.298772" height="170.75702" width="1023.7636" version="1.1" xmlns="http://www.w3.org/2000/svg" xmlns:xlink="http://www.w3.org/1999/xlink">
  <image id="container" style="display: none" x="272" y="144" width="480" height="480" xlink:href=""/>
  <image id="icon_container" style="display: none" x="0" y="0" xlink:href=""/>
  <g id="slogan" style="&#10;                font-style: normal;&#10;                font-weight: 700;&#10;                font-size: 32px;&#10;                line-height: 1;&#10;                font-family: 'Brandmark1 Bold';&#10;                font-variant-ligatures: none;&#10;                text-align: center;&#10;                text-anchor: middle;&#10;              "/>
  <g id="title" style="&#10;                font-style: normal;&#10;                font-weight: 700;&#10;                font-size: 72px;&#10;                line-height: 1;&#10;                font-family: 'Brandmark1 Bold';&#10;                font-variant-ligatures: normal;&#10;                text-align: center;&#10;                text-anchor: middle;&#10;              " transform="matrix(1.007075, 0, 0, 0.945586, 171.547852, -21.558315)">
    <path id="path405562" style="font-style: normal; font-weight: 700; font-size: 72px; line-height: 1; font-family: 'Brandmark1 Bold'; font-variant-ligatures: normal; text-align: center; text-anchor: middle; fill: rgb(247, 247, 247);" d="M 86.38 412.083 C 98.567 412.083 109.839 406.127 116.62 396.047 L 104.707 387.983 C 100.583 394.123 93.711 397.696 86.38 397.696 C 80.515 397.696 75.017 395.406 70.801 391.282 C 66.678 387.158 64.387 381.568 64.387 375.704 C 64.387 369.839 66.678 364.249 70.801 360.126 C 75.017 355.91 80.515 353.619 86.38 353.619 C 93.802 353.619 100.675 357.285 104.707 363.424 L 116.711 355.452 C 109.93 345.28 98.567 339.232 86.38 339.232 C 81.523 339.232 76.758 340.24 72.268 342.165 C 67.869 343.998 64.02 346.563 60.63 349.954 C 57.331 353.253 54.673 357.193 52.841 361.5 C 50.916 365.99 50 370.755 50 375.704 C 50 380.652 50.916 385.417 52.841 389.907 C 54.673 394.214 57.331 398.063 60.63 401.454 C 64.02 404.752 67.869 407.41 72.268 409.243 C 76.758 411.167 81.523 412.083 86.38 412.083 L 86.38 412.083 Z" stroke-width="0" stroke-linejoin="miter" stroke-miterlimit="2" stroke="#ccc5b9"/>
    <path id="path405564" style="font-style: normal; font-weight: 700; font-size: 72px; line-height: 1; font-family: 'Brandmark1 Bold'; font-variant-ligatures: normal; text-align: center; text-anchor: middle; fill: rgb(247, 247, 247);" d="m 355.32238,2.952 c 4.752,0 9.28799,-1.872 12.67199,-5.256 3.456,-3.384 5.32801,-7.92 5.32801,-12.744 v -22.536 h -10.80001 v 22.536 c 0,4.032 -3.24,7.2 -7.19999,7.2 -4.03201,0 -7.20001,-3.168 -7.20001,-7.2 v -22.536 h -10.79999 v 22.536 c 0,4.824 1.87199,9.36 5.25599,12.744 3.384,3.384 7.92,5.256 12.74401,5.256 z" stroke-width="0" stroke-linejoin="miter" stroke-miterlimit="2" stroke="#ccc5b9" transform="matrix(1.2727273,0,0,1.2727273,-312.27736,409.01673)"/>
    <path id="path405566" style="font-style: normal; font-weight: 700; font-size: 72px; line-height: 1; font-family: 'Brandmark1 Bold'; font-variant-ligatures: normal; text-align: center; text-anchor: middle; fill: rgb(247, 247, 247);" d="m 417.85437,-25.488 c -1.00799,-2.376 -2.51999,-4.608 -4.392,-6.48 -1.872,-1.872 -4.03199,-3.384 -6.48,-4.392 -2.592,-1.08 -5.25599,-1.656 -7.992,-1.656 -2.808,0 -5.472,0.576 -7.992,1.656 -2.448,1.008 -4.68,2.52 -6.552,4.392 -1.872,1.872 -3.384,4.032 -4.392,6.48 -1.08,2.592 -1.584,5.256 -1.584,7.992 v 30.672 l 10.8,3.6 v -16.2 c 0.50401,0.36 1.08,0.576 1.728,0.864 2.52,1.08 5.184,1.584 7.992,1.584 2.73601,0 5.4,-0.504 7.992,-1.584 2.37601,-1.008 4.608,-2.52 6.48,-4.392 1.87201,-1.872 3.38401,-4.104 4.392,-6.552 1.08,-2.52 1.656,-5.184 1.656,-7.992 0,-2.736 -0.576,-5.4 -1.656,-7.992 z m -18.864,17.712 c -5.4,0 -9.72,-4.32 -9.72,-9.72 0,-5.328 4.32,-9.72 9.72,-9.72 5.328,0 9.72,4.392 9.72,9.72 0,5.4 -4.392,9.72 -9.72,9.72 z" stroke-width="0" stroke-linejoin="miter" stroke-miterlimit="2" stroke="#ccc5b9" transform="matrix(1.2727273,0,0,1.2727273,-312.27736,409.01673)"/>
    <path id="path405568" style="font-style: normal; font-weight: 700; font-size: 72px; line-height: 1; font-family: 'Brandmark1 Bold'; font-variant-ligatures: normal; text-align: center; text-anchor: middle; fill: rgb(247, 247, 247);" d="M 423.27463,-35.424 V 2.52 h 10.87199 v -41.544 z" stroke-width="0" stroke-linejoin="miter" stroke-miterlimit="2" stroke="#ccc5b9" transform="matrix(1.2727273,0,0,1.2727273,-312.27736,409.01673)"/>
    <path id="path405570" style="font-style: normal; font-weight: 700; font-size: 72px; line-height: 1; font-family: 'Brandmark1 Bold'; font-variant-ligatures: normal; text-align: center; text-anchor: middle; fill: rgb(247, 247, 247);" d="M 247.433 396.921 C 248.716 400.036 250.641 402.785 253.023 405.26 C 255.406 407.642 258.246 409.475 261.362 410.849 C 264.569 412.132 267.96 412.865 271.534 412.865 C 275.016 412.865 278.406 412.132 281.705 410.849 C 284.729 409.475 287.57 407.642 289.953 405.26 C 292.335 402.785 294.26 400.036 295.542 396.921 C 296.917 393.713 297.65 390.231 297.65 386.749 L 297.65 342.214 L 283.905 337.632 L 283.905 363.748 L 281.705 362.649 C 278.406 361.366 275.016 360.633 271.534 360.633 C 267.96 360.633 264.569 361.366 261.362 362.649 C 258.246 364.023 255.406 365.856 253.023 368.239 C 250.641 370.713 248.716 373.462 247.433 376.577 C 246.059 379.785 245.417 383.267 245.417 386.749 C 245.417 390.231 246.059 393.713 247.433 396.921 L 247.433 396.921 Z M 271.534 374.378 C 278.315 374.378 283.905 379.968 283.905 386.749 C 283.905 393.53 278.315 399.12 271.534 399.12 C 264.661 399.12 259.163 393.53 259.163 386.749 C 259.163 379.968 264.661 374.378 271.534 374.378 Z" stroke-width="0" stroke-linejoin="miter" stroke-miterlimit="2" stroke="#ccc5b9"/>
    <path id="path405572" style="font-style: normal; font-weight: 700; font-size: 72px; line-height: 1; font-family: 'Brandmark1 Bold'; font-variant-ligatures: normal; text-align: center; text-anchor: middle; fill: rgb(71, 0, 247);" d="m 511.793,2.952 c 9.576,0 18.432,-4.68 23.76,-12.6 l -9.36,-6.336 c -3.24,4.824 -8.64,7.632 -14.4,7.632 -4.608,0 -8.928,-1.8 -12.24,-5.04 -3.24,-3.24 -5.04,-7.632 -5.04,-12.24 0,-4.608 1.8,-9 5.04,-12.24 3.312,-3.312 7.632,-5.112 12.24,-5.112 5.832,0 11.232,2.88 14.4,7.704 l 9.432,-6.264 c -5.328,-7.992 -14.256,-12.744 -23.832,-12.744 -3.816,0 -7.56,0.792 -11.088,2.304 -3.456,1.44 -6.48,3.456 -9.144,6.12 -2.592,2.592 -4.68,5.688 -6.12,9.072 -1.512,3.528 -2.232,7.272 -2.232,11.16 0,3.888 0.72,7.632 2.232,11.16 1.44,3.384 3.528,6.408 6.12,9.072 2.664,2.592 5.688,4.68 9.144,6.12 3.528,1.512 7.272,2.232 11.088,2.232 z" stroke-width="0" stroke-linejoin="miter" stroke-miterlimit="2" stroke="#656560" transform="matrix(1.2727273,0,0,1.2727273,-312.27736,409.01673)"/>
    <path id="path405574" style="font-style: normal; font-weight: 700; font-size: 72px; line-height: 1; font-family: 'Brandmark1 Bold'; font-variant-ligatures: normal; text-align: center; text-anchor: middle; fill: rgb(71, 0, 247);" d="M 538.30588,-35.424 V 2.52 h 10.87199 v -41.544 z" stroke-width="0" stroke-linejoin="miter" stroke-miterlimit="2" stroke="#656560" transform="matrix(1.2727273,0,0,1.2727273,-312.27736,409.01673)"/>
    <path id="path405576" style="font-style: normal; font-weight: 700; font-size: 72px; line-height: 1; font-family: 'Brandmark1 Bold'; font-variant-ligatures: normal; text-align: center; text-anchor: middle; fill: rgb(71, 0, 247);" d="m 586.412,-31.608 c -3.384,-3.456 -7.992,-5.328 -12.816,-5.328 -2.52,0 -5.04,0.504 -7.272,1.512 v -2.592 h -10.8 v 17.64 c -0.072,0.504 -0.072,1.08 -0.072,1.584 h 0.072 V 2.52 h 10.8 V -19.8 c 0.504,-3.6 3.6,-6.336 7.272,-6.336 4.032,0 7.344,3.312 7.344,7.344 V 2.52 h 10.8 v -21.312 c 0,-4.824 -1.872,-9.36 -5.328,-12.816 z" stroke-width="0" stroke-linejoin="miter" stroke-miterlimit="2" stroke="#656560" transform="matrix(1.2727273,0,0,1.2727273,-312.27736,409.01673)"/>
    <path id="path405578" style="font-style: normal; font-weight: 700; font-size: 72px; line-height: 1; font-family: 'Brandmark1 Bold'; font-variant-ligatures: normal; text-align: center; text-anchor: middle; fill: rgb(71, 0, 247);" d="m 614.00037,2.736 c 2.88,0 5.616,-0.576 8.20801,-1.656 2.448,-1.152 4.67999,-2.664 6.55199,-4.68 l -7.56,-7.2 c -1.87199,2.016 -4.464,3.096 -7.2,3.096 -3.52799,0 -6.55199,-1.8 -8.352,-4.608 h 28.65601 v -5.184 c 0,-5.472 -2.08801,-10.512 -5.976,-14.4 -3.816,-3.816 -8.92801,-5.904 -14.32801,-5.904 -5.4,0 -10.51199,2.088 -14.328,5.904 -3.816,3.888 -5.976,8.928 -5.976,14.4 0,5.4 2.16,10.512 5.976,14.328 3.81601,3.816 8.928,5.904 14.328,5.904 z m 8.35201,-25.488 h -16.70401 c 1.80001,-2.736 4.82401,-4.608 8.352,-4.608 3.528,0 6.624,1.872 8.35201,4.608 z" stroke-width="0" stroke-linejoin="miter" stroke-miterlimit="2" stroke="#656560" transform="matrix(1.2727273,0,0,1.2727273,-312.27736,409.01673)"/>
    <path id="path405580" style="font-style: normal; font-weight: 700; font-size: 72px; line-height: 1; font-family: 'Brandmark1 Bold'; font-variant-ligatures: normal; text-align: center; text-anchor: middle; fill: rgb(71, 0, 247);" d="m 690.22925,-32.328 c -3.312,-3.312 -7.632,-5.112 -12.24,-5.112 -4.536,0 -8.712,1.728 -11.952,4.752 -3.24,-3.024 -7.416,-4.752 -11.88,-4.752 -2.304,0 -4.536,0.432 -6.552,1.296 v -1.872 h -10.8 V 2.52 h 10.8 v -22.608 c 0,-3.6 2.952,-6.552 6.552,-6.552 3.528,0 6.48,2.952 6.48,6.552 V 2.52 h 10.8 v -22.608 c 0,-3.6 2.952,-6.552 6.552,-6.552 3.528,0 6.48,2.952 6.48,6.552 V 2.52 h 10.8 v -22.608 c 0,-4.608 -1.8,-9 -5.04,-12.24 z" stroke-width="0" stroke-linejoin="miter" stroke-miterlimit="2" stroke="#656560" transform="matrix(1.2727273,0,0,1.2727273,-312.27736,409.01673)"/>
    <path id="path405582" style="font-style: normal; font-weight: 700; font-size: 72px; line-height: 1; font-family: 'Brandmark1 Bold'; font-variant-ligatures: normal; text-align: center; text-anchor: middle; fill: rgb(71, 0, 247);" d="m 738.66837,-38.016 h -10.79999 v 2.232 c -2.808,-1.44 -5.976,-2.232 -9.21601,-2.232 -2.80799,0 -5.47199,0.576 -7.99199,1.656 -2.44801,1.008 -4.68001,2.52 -6.552,4.392 -1.87201,1.872 -3.38401,4.032 -4.39201,6.48 -1.07999,2.592 -1.58399,5.256 -1.58399,7.992 0,2.808 0.504,5.472 1.58399,7.992 1.008,2.448 2.52,4.68 4.39201,6.552 1.87199,1.872 4.10399,3.384 6.552,4.392 2.52,1.08 5.184,1.584 7.99199,1.584 3.16801,0 6.40801,-0.72 9.21601,-2.16 V 2.52 h 10.79999 z m -15.12,28.944 c -1.51199,0.864 -3.168,1.296 -4.896,1.296 -5.39999,0 -9.72,-4.32 -9.72,-9.72 0,-5.328 4.32001,-9.72 9.72,-9.72 1.872,0 3.67201,0.576 5.256,1.584 1.51201,1.008 2.736,2.376 3.528,4.032 0.57601,1.296 0.86401,2.664 0.86401,4.176 0,1.656 -0.432,3.384 -1.29601,4.824 -0.792,1.44 -2.01599,2.664 -3.456,3.528 z" stroke-width="0" stroke-linejoin="miter" stroke-miterlimit="2" stroke="#656560" transform="matrix(1.2727273,0,0,1.2727273,-312.27736,409.01673)"/>
  </g>
  <image id="icon" style="display: none" x="0" y="0" xlink:href=""/>
</svg>
